<svg width="40" height="40" viewBox="0 0 40 40" fill="none" xmlns="http://www.w3.org/2000/svg">
<g clip-path="url(#clip0_230_63)">
<path d="M40 20.1217C40 9.07673 31.045 0.121735 20 0.121735C8.955 0.121735 0 9.07673 0 20.1217C0 30.1051 7.31333 38.3784 16.875 39.8784V25.9034H11.7967V20.1201H16.875V15.7167C16.875 10.7051 19.8617 7.93507 24.43 7.93507C26.6167 7.93507 28.9067 8.32673 28.9067 8.32673V13.2484H26.3833C23.8983 13.2484 23.1233 14.7901 23.1233 16.3717V20.1217H28.67L27.7833 25.9051H23.1233V39.8801C32.6867 38.3784 40 30.1034 40 20.1217Z" fill="black"/>
</g>
<defs>
<clipPath id="clip0_230_63">
<rect width="40" height="40" fill="white"/>
</clipPath>
</defs>
</svg>
