<svg width="40" height="40" viewBox="0 0 40 40" fill="none" xmlns="http://www.w3.org/2000/svg">
<path fill-rule="evenodd" clip-rule="evenodd" d="M5 0H35C37.7614 0 40 2.23858 40 5V35C40 37.7614 37.7614 40 35 40H5C2.23858 40 0 37.7614 0 35V5C0 2.23858 2.23858 0 5 0ZM8.99308 12.4874C10.9148 12.4874 12.4726 10.9296 12.4726 9.00788C12.4726 7.08618 10.9148 5.52834 8.99308 5.52834C7.07138 5.52834 5.51353 7.08618 5.51353 9.00788C5.51353 10.9296 7.07138 12.4874 8.99308 12.4874ZM12.053 33.8706V14.8916H5.94387V33.8706H12.053ZM21.2479 14.8916H15.4375L15.4683 33.8706H21.5206V23.4789C21.5206 21.9511 22.3029 19.7799 24.9591 19.7799C27.2461 19.7799 27.8515 21.7285 27.8515 23.2139V33.8706H33.7725V22.5499C33.7725 19.3785 33.2992 18.0315 32.8036 17.2865C31.4275 15.2176 29.4592 14.3841 26.881 14.3841C24.3027 14.3841 22.2401 15.4975 21.2479 17.4043V14.8916Z" fill="black"/>
</svg>
