<svg width="40" height="40" viewBox="0 0 40 40" fill="none" xmlns="http://www.w3.org/2000/svg">
<g clip-path="url(#clip0_234_117)">
<path d="M20.0283 0C8.99334 0 0.0483398 8.945 0.0483398 19.9783C0.0483398 28.4433 5.31167 35.6733 12.745 38.5817C12.57 37 12.4133 34.5767 12.8133 32.85C13.1783 31.2883 15.1567 22.9217 15.1567 22.9217C15.1567 22.9217 14.5583 21.7217 14.5583 19.9533C14.5583 17.1817 16.17 15.1017 18.1717 15.1017C19.8783 15.1017 20.7017 16.3833 20.7017 17.915C20.7017 19.63 19.6133 22.1933 19.0483 24.5683C18.5733 26.5567 20.0483 28.1767 22.0067 28.1767C25.5533 28.1767 28.2867 24.435 28.2867 19.0317C28.2867 14.2633 24.8483 10.9167 19.94 10.9167C14.2567 10.9167 10.925 15.1867 10.925 19.5817C10.925 21.3033 11.5817 23.1533 12.4067 24.15C12.5717 24.35 12.5933 24.525 12.5483 24.725C12.3983 25.35 12.06 26.7233 11.9917 26.9967C11.9033 27.3717 11.705 27.4483 11.3233 27.2717C8.83167 26.1217 7.26834 22.475 7.26834 19.5283C7.26834 13.235 11.8483 7.44167 20.4683 7.44167C27.3983 7.44167 32.7883 12.3867 32.7883 18.98C32.7883 25.8717 28.4433 31.4167 22.4 31.4167C20.3767 31.4167 18.4767 30.3683 17.8033 29.1183L16.555 33.865C16.1067 35.6067 14.8817 37.785 14.0583 39.1083C15.93 39.6833 17.9017 40 19.975 40C30.9867 40 39.95 31.0583 39.95 20.0217C39.95 8.98333 30.9867 0.0433333 19.975 0.0433333L20.0283 0Z" fill="black"/>
</g>
<defs>
<clipPath id="clip0_234_117">
<rect width="40" height="40" fill="white"/>
</clipPath>
</defs>
</svg>
