<svg width="40" height="40" viewBox="0 0 40 40" fill="none" xmlns="http://www.w3.org/2000/svg">
<g clip-path="url(#clip0_234_121)">
<path d="M20.8785 0.0333333C23.0618 0 25.2285 0.0166667 27.3951 0C27.5285 2.55 28.4451 5.15 30.3118 6.95C32.1785 8.8 34.8118 9.65 37.3785 9.93333V16.65C34.9785 16.5667 32.5618 16.0667 30.3785 15.0333C29.4285 14.6 28.5451 14.05 27.6785 13.4833C27.6618 18.35 27.6951 23.2167 27.6451 28.0667C27.5118 30.4 26.7451 32.7167 25.3951 34.6333C23.2118 37.8333 19.4285 39.9167 15.5451 39.9833C13.1618 40.1167 10.7785 39.4667 8.74512 38.2667C5.37846 36.2833 3.01179 32.65 2.66179 28.75C2.62846 27.9167 2.61179 27.0833 2.64512 26.2667C2.94512 23.1 4.51179 20.0667 6.94512 18C9.71179 15.6 13.5785 14.45 17.1951 15.1333C17.2285 17.6 17.1285 20.0667 17.1285 22.5333C15.4785 22 13.5451 22.15 12.0951 23.15C11.0451 23.8333 10.2451 24.8833 9.82846 26.0667C9.47846 26.9167 9.57846 27.85 9.59512 28.75C9.99512 31.4833 12.6285 33.7833 15.4285 33.5333C17.2951 33.5167 19.0785 32.4333 20.0451 30.85C20.3618 30.3 20.7118 29.7333 20.7285 29.0833C20.8951 26.1 20.8285 23.1333 20.8451 20.15C20.8618 13.4333 20.8285 6.73333 20.8785 0.0333333Z" fill="black"/>
</g>
<defs>
<clipPath id="clip0_234_121">
<rect width="40" height="40" fill="white"/>
</clipPath>
</defs>
</svg>
