<svg width="40" height="40" viewBox="0 0 40 40" fill="none" xmlns="http://www.w3.org/2000/svg">
<path d="M14.485 3.64667C6.485 3.64667 0 9.12667 0 15.8833C0 19.57 1.95 22.8883 5.00333 25.1333C5.17276 25.2562 5.29855 25.43 5.3624 25.6293C5.42625 25.8287 5.42483 26.0432 5.35833 26.2417L4.70833 28.7083C4.67667 28.825 4.62833 28.9433 4.62833 29.0633C4.62833 29.335 4.845 29.555 5.11167 29.555C5.21093 29.551 5.30719 29.5199 5.39 29.465L8.56167 27.6083C8.7372 27.4963 8.93494 27.4237 9.14124 27.3955C9.34755 27.3673 9.55752 27.3842 9.75667 27.445C11.2931 27.8911 12.8851 28.1173 14.485 28.1167C14.945 28.1167 15.39 28.0717 15.8367 28.0333C14.4083 23.7367 16.0983 19.7467 19.0567 17.29C21.895 14.9317 25.5267 13.99 28.8117 14.2267C27.8517 8.255 21.8183 3.64667 14.485 3.64667ZM9.64167 9.985C10.7117 9.985 11.5783 10.8667 11.5783 11.9517C11.5801 12.2077 11.5314 12.4617 11.435 12.6989C11.3386 12.9362 11.1965 13.1521 11.0166 13.3344C10.8368 13.5168 10.6228 13.6619 10.3869 13.7615C10.151 13.8611 9.89775 13.9133 9.64167 13.915C9.38545 13.9133 9.13208 13.861 8.89605 13.7613C8.66003 13.6616 8.44597 13.5163 8.26611 13.3339C8.08625 13.1514 7.94412 12.9352 7.84784 12.6978C7.75156 12.4603 7.70302 12.2062 7.705 11.95C7.705 10.865 8.57167 9.98333 9.64167 9.98333V9.985ZM19.33 9.985C20.4 9.985 21.2667 10.8667 21.2667 11.9517C21.2684 12.2077 21.2197 12.4617 21.1233 12.6989C21.027 12.9362 20.8848 13.1521 20.705 13.3344C20.5251 13.5168 20.3111 13.6619 20.0752 13.7615C19.8393 13.8611 19.5861 13.9133 19.33 13.915C19.0739 13.9133 18.8207 13.8611 18.5848 13.7615C18.3489 13.6619 18.1349 13.5168 17.955 13.3344C17.7752 13.1521 17.633 12.9362 17.5367 12.6989C17.4403 12.4617 17.3916 12.2077 17.3933 11.9517C17.3933 10.8667 18.26 9.985 19.33 9.985ZM28.23 14.7633C25.235 14.6767 21.9867 15.6167 19.43 17.74C16.5633 20.12 14.9517 23.94 16.4633 28.1067C18.0333 32.195 22.5733 35.155 27.9367 35.155C29.3133 35.155 30.64 34.955 31.8717 34.595C32.0378 34.5445 32.2129 34.5306 32.385 34.5542C32.557 34.5778 32.7219 34.6383 32.8683 34.7317L35.5083 36.275C35.5774 36.3221 35.6582 36.3492 35.7417 36.3533C35.965 36.3533 36.1417 36.1683 36.1417 35.9417C36.1417 35.8417 36.1033 35.7417 36.0783 35.6467L35.5333 33.5917C35.5088 33.5071 35.4959 33.4197 35.495 33.3317C35.4944 33.2025 35.5244 33.075 35.5827 32.9597C35.6409 32.8444 35.7257 32.7445 35.83 32.6683C38.3733 30.8 40 28.0333 40 24.9667C40 19.6167 35.115 15.2383 28.9067 14.82V14.8167C28.6817 14.8 28.4567 14.7717 28.2283 14.7667L28.23 14.7633ZM24.0133 20.22C24.905 20.22 25.6283 20.9533 25.6283 21.8567C25.6299 22.0703 25.5893 22.2821 25.509 22.4801C25.4287 22.678 25.3101 22.8582 25.1602 23.0103C25.0102 23.1625 24.8317 23.2836 24.635 23.3667C24.4382 23.4499 24.227 23.4935 24.0133 23.495C23.7997 23.4935 23.5885 23.4499 23.3917 23.3667C23.1949 23.2836 23.0165 23.1625 22.8665 23.0103C22.7165 22.8582 22.598 22.678 22.5177 22.4801C22.4373 22.2821 22.3968 22.0703 22.3983 21.8567C22.3983 20.9533 23.1217 20.22 24.015 20.22H24.0133ZM32.0867 20.22C32.9783 20.22 33.7017 20.9533 33.7017 21.8567C33.7032 22.0703 33.6626 22.2821 33.5823 22.4801C33.502 22.678 33.3835 22.8582 33.2335 23.0103C33.0835 23.1625 32.9051 23.2836 32.7083 23.3667C32.5115 23.4499 32.3003 23.4935 32.0867 23.495C31.873 23.4935 31.6618 23.4499 31.465 23.3667C31.2683 23.2836 31.0898 23.1625 30.9398 23.0103C30.7899 22.8582 30.6713 22.678 30.591 22.4801C30.5107 22.2821 30.4701 22.0703 30.4717 21.8567C30.4717 20.9533 31.195 20.22 32.0867 20.22Z" fill="black"/>
</svg>
